<svg xmlns="http://www.w3.org/2000/svg" xmlns:xlink="http://www.w3.org/1999/xlink" width="48" height="48" viewBox="0 0 40 40" version="1.1">
<g id="surface3870">
<path style=" stroke:none;fill-rule:nonzero;fill:rgb(18.039216%,90.196079%,90.196079%);fill-opacity:1;" d="M 32.433594 8.007812 C 35.738281 11.3125 37.390625 15.644531 37.390625 19.988281 C 37.390625 24.34375 35.742188 28.679688 32.433594 31.992188 C 31.921875 32.5 31.921875 33.328125 32.433594 33.835938 C 32.941406 34.347656 33.769531 34.347656 34.277344 33.835938 C 38.09375 30.019531 40 24.996094 40 19.988281 C 40 14.984375 38.089844 9.972656 34.277344 6.160156 C 33.769531 5.652344 32.941406 5.652344 32.433594 6.160156 C 31.921875 6.671875 31.921875 7.496094 32.433594 8.007812 Z M 32.433594 8.007812 "/>
<path style=" stroke:none;fill-rule:nonzero;fill:rgb(14.901961%,74.901962%,74.901962%);fill-opacity:1;" d="M 37.390625 20 C 37.386719 24.347656 35.738281 28.683594 32.433594 31.992188 C 31.921875 32.5 31.921875 33.328125 32.433594 33.835938 C 32.941406 34.347656 33.769531 34.347656 34.277344 33.835938 C 38.089844 30.023438 40 25.003906 40 20 Z M 37.390625 20 "/>
<path style=" stroke:none;fill-rule:nonzero;fill:rgb(18.039216%,90.196079%,90.196079%);fill-opacity:1;" d="M 28.742188 11.695312 C 31.03125 13.988281 32.171875 16.984375 32.175781 20 C 32.171875 23.011719 31.03125 26.011719 28.742188 28.304688 C 28.234375 28.8125 28.234375 29.640625 28.742188 30.148438 C 29.253906 30.65625 30.078125 30.65625 30.585938 30.148438 C 33.382812 27.351562 34.785156 23.667969 34.785156 20 C 34.785156 16.328125 33.382812 12.648438 30.585938 9.851562 C 30.078125 9.339844 29.253906 9.339844 28.742188 9.851562 C 28.234375 10.359375 28.234375 11.183594 28.742188 11.695312 Z M 28.742188 11.695312 "/>
<path style=" stroke:none;fill-rule:nonzero;fill:rgb(14.901961%,74.901962%,74.901962%);fill-opacity:1;" d="M 28.742188 28.304688 C 28.234375 28.8125 28.234375 29.640625 28.742188 30.148438 C 29.253906 30.660156 30.078125 30.65625 30.585938 30.148438 C 33.382812 27.351562 34.785156 23.667969 34.785156 20 L 32.175781 20 C 32.171875 23.011719 31.03125 26.011719 28.742188 28.304688 Z M 28.742188 28.304688 "/>
<path style=" stroke:none;fill-rule:nonzero;fill:rgb(18.039216%,90.196079%,90.196079%);fill-opacity:1;" d="M 25.054688 15.386719 C 26.324219 16.660156 26.957031 18.320312 26.957031 19.996094 C 26.957031 21.675781 26.324219 23.339844 25.050781 24.613281 C 24.542969 25.125 24.542969 25.949219 25.050781 26.460938 C 25.5625 26.96875 26.386719 26.96875 26.898438 26.457031 C 28.675781 24.679688 29.570312 22.332031 29.566406 19.996094 C 29.570312 17.664062 28.675781 15.320312 26.898438 13.542969 C 26.390625 13.03125 25.5625 13.03125 25.054688 13.542969 C 24.542969 14.050781 24.542969 14.878906 25.054688 15.386719 Z M 25.054688 15.386719 "/>
<path style=" stroke:none;fill-rule:nonzero;fill:rgb(14.901961%,74.901962%,74.901962%);fill-opacity:1;" d="M 26.957031 20 C 26.957031 21.675781 26.324219 23.339844 25.050781 24.613281 C 24.542969 25.125 24.542969 25.949219 25.050781 26.460938 C 25.5625 26.96875 26.386719 26.96875 26.898438 26.457031 C 28.675781 24.679688 29.566406 22.332031 29.566406 20 Z M 26.957031 20 "/>
<path style=" stroke:none;fill-rule:nonzero;fill:rgb(7.843138%,30.980393%,60.784316%);fill-opacity:1;" d="M 9.132812 10.867188 L 1.304688 10.867188 C 0.585938 10.867188 0 11.449219 0 12.171875 L 0 27.828125 C 0 28.546875 0.585938 29.132812 1.304688 29.132812 L 9.132812 29.132812 C 9.851562 29.132812 10.4375 28.546875 10.4375 27.828125 L 10.4375 12.171875 C 10.4375 11.449219 9.851562 10.867188 9.132812 10.867188 Z M 9.132812 10.867188 "/>
<path style=" stroke:none;fill-rule:nonzero;fill:rgb(0%,24.705882%,51.764709%);fill-opacity:1;" d="M 0 20 L 0 27.828125 C 0 28.546875 0.585938 29.132812 1.304688 29.132812 L 9.132812 29.132812 C 9.851562 29.132812 10.4375 28.546875 10.4375 27.828125 L 10.4375 20 Z M 0 20 "/>
<path style=" stroke:none;fill-rule:nonzero;fill:rgb(12.156863%,38.82353%,67.843139%);fill-opacity:1;" d="M 20.152344 3.175781 C 19.710938 2.953125 19.183594 3.003906 18.785156 3.300781 L 7.828125 10.867188 L 7.828125 29.132812 L 18.785156 36.699219 C 19.648438 37.34375 20.875 36.730469 20.875 35.65625 L 20.875 4.34375 C 20.875 3.847656 20.597656 3.398438 20.152344 3.175781 Z M 20.152344 3.175781 "/>
<path style=" stroke:none;fill-rule:nonzero;fill:rgb(0%,28.627452%,60.000002%);fill-opacity:1;" d="M 7.828125 20 L 7.828125 29.132812 L 18.785156 36.699219 C 19.648438 37.34375 20.875 36.730469 20.875 35.65625 L 20.875 20 Z M 7.828125 20 "/>
</g>
</svg>
