<svg xmlns="http://www.w3.org/2000/svg" xmlns:xlink="http://www.w3.org/1999/xlink" width="40" height="48" viewBox="0 0 38 38" version="1.1">
<g id="surface3670">
<path style=" stroke:none;fill-rule:nonzero;fill:rgb(0%,0%,0%);fill-opacity:1;" d="M 33.671875 4.074219 C 33.425781 4.214844 27.054688 9.40625 6.855469 25.925781 C 1.226562 30.53125 1.171875 30.585938 1.023438 30.941406 C 0.734375 31.632812 0.964844 32.5 1.566406 32.964844 C 2.015625 33.296875 2.855469 33.359375 3.320312 33.078125 C 3.503906 32.972656 5.21875 31.609375 7.144531 30.03125 C 9.0625 28.457031 10.671875 27.171875 10.707031 27.171875 C 10.75 27.171875 12.292969 28.625 14.140625 30.398438 C 17.886719 34.015625 17.964844 34.078125 19.042969 34.078125 C 20.222656 34.078125 21.320312 33.21875 21.554688 32.109375 C 21.617188 31.820312 21.652344 29.367188 21.652344 24.910156 L 21.652344 18.152344 L 28.65625 12.417969 C 32.515625 9.265625 35.738281 6.570312 35.835938 6.421875 C 36.316406 5.632812 36.054688 4.625 35.238281 4.128906 C 34.828125 3.875 34.082031 3.855469 33.671875 4.074219 Z M 19.460938 25.75 C 19.460938 30.777344 19.445312 31.484375 19.320312 31.660156 C 19.253906 31.765625 19.121094 31.851562 19.035156 31.851562 C 18.875 31.851562 12.546875 25.832031 12.554688 25.679688 C 12.554688 25.585938 19.289062 20.042969 19.402344 20.035156 C 19.4375 20.035156 19.460938 22.609375 19.460938 25.75 Z M 19.460938 25.75 "/>
<path style=" stroke:none;fill-rule:nonzero;fill:rgb(0%,0%,0%);fill-opacity:1;" d="M 17.929688 5.273438 C 17.597656 5.421875 16.667969 6.261719 14.128906 8.707031 L 10.777344 11.9375 L 7.566406 11.980469 L 4.359375 12.023438 L 3.773438 12.304688 C 3.101562 12.617188 2.59375 13.101562 2.058594 13.90625 C 0.359375 16.480469 -0.078125 19.773438 0.875 22.703125 C 1.324219 24.089844 2.671875 26.355469 2.941406 26.1875 C 3.011719 26.152344 3.414062 25.832031 3.851562 25.472656 L 4.640625 24.824219 L 4.324219 24.5 C 3.695312 23.859375 3.074219 22.566406 2.765625 21.296875 C 2.53125 20.28125 2.558594 18.574219 2.820312 17.582031 C 3.195312 16.15625 4.125 14.535156 4.71875 14.292969 C 4.957031 14.195312 5.691406 14.167969 8.335938 14.167969 L 11.660156 14.167969 L 15.171875 10.773438 C 17.109375 8.90625 18.789062 7.347656 18.894531 7.304688 C 19.042969 7.242188 19.148438 7.253906 19.234375 7.339844 C 19.359375 7.4375 19.375 7.804688 19.375 10.070312 C 19.375 11.515625 19.410156 12.679688 19.445312 12.664062 C 19.488281 12.644531 20.007812 12.242188 20.59375 11.761719 L 21.660156 10.886719 L 21.632812 8.960938 C 21.609375 7.164062 21.589844 7 21.398438 6.570312 C 21.144531 6 20.488281 5.394531 19.925781 5.203125 C 19.3125 4.992188 18.464844 5.019531 17.929688 5.273438 Z M 17.929688 5.273438 "/>
<path style=" stroke:none;fill-rule:nonzero;fill:rgb(0%,0%,0%);fill-opacity:1;" d="M 33.777344 11.148438 C 33.347656 11.5 32.980469 11.824219 32.972656 11.867188 C 32.953125 11.910156 33.128906 12.226562 33.347656 12.558594 C 33.847656 13.285156 34.519531 14.667969 34.820312 15.570312 C 35.265625 16.925781 35.421875 17.941406 35.421875 19.554688 C 35.421875 21.707031 35.082031 23.203125 34.171875 25.066406 C 33.515625 26.40625 32.917969 27.238281 31.726562 28.457031 C 31.132812 29.070312 30.609375 29.621094 30.574219 29.683594 C 30.527344 29.742188 30.492188 29.96875 30.492188 30.179688 C 30.492188 30.503906 30.539062 30.609375 30.835938 30.898438 C 31.125 31.195312 31.230469 31.238281 31.5625 31.238281 C 32.070312 31.238281 32.367188 31.019531 33.566406 29.777344 C 35.511719 27.765625 36.78125 25.339844 37.382812 22.492188 C 37.59375 21.496094 37.621094 21.214844 37.621094 19.554688 C 37.621094 17.890625 37.59375 17.609375 37.382812 16.613281 C 37.113281 15.332031 36.761719 14.28125 36.226562 13.144531 C 35.867188 12.375 34.886719 10.773438 34.667969 10.597656 C 34.589844 10.535156 34.335938 10.691406 33.777344 11.148438 Z M 33.777344 11.148438 "/>
<path style=" stroke:none;fill-rule:nonzero;fill:rgb(0%,0%,0%);fill-opacity:1;" d="M 30.039062 14.195312 C 29.625 14.546875 29.25 14.851562 29.214844 14.886719 C 29.1875 14.921875 29.277344 15.140625 29.425781 15.367188 C 29.835938 16.007812 30.203125 16.855469 30.414062 17.628906 C 30.6875 18.617188 30.6875 20.480469 30.421875 21.480469 C 30.046875 22.878906 28.980469 24.628906 28.042969 25.382812 C 27.839844 25.550781 27.621094 25.785156 27.550781 25.917969 C 27.113281 26.765625 27.929688 27.757812 28.839844 27.484375 C 29.519531 27.273438 31.0625 25.523438 31.761719 24.148438 C 33.09375 21.523438 33.207031 18.371094 32.078125 15.648438 C 31.796875 14.964844 30.964844 13.554688 30.859375 13.554688 C 30.828125 13.566406 30.457031 13.84375 30.039062 14.195312 Z M 30.039062 14.195312 "/>
<path style=" stroke:none;fill-rule:nonzero;fill:rgb(0%,0%,0%);fill-opacity:1;" d="M 26.160156 17.375 C 25.730469 17.730469 25.371094 18.054688 25.371094 18.089844 C 25.371094 18.125 25.449219 18.363281 25.539062 18.625 C 25.660156 18.976562 25.6875 19.253906 25.660156 19.726562 C 25.609375 20.507812 25.390625 20.980469 24.75 21.699219 C 24.347656 22.152344 24.277344 22.277344 24.277344 22.582031 C 24.277344 23.28125 24.707031 23.710938 25.40625 23.710938 C 25.871094 23.710938 26.378906 23.316406 26.957031 22.511719 C 28.035156 21.015625 28.207031 18.921875 27.394531 17.304688 C 27.246094 17.003906 27.089844 16.75 27.035156 16.742188 C 26.992188 16.726562 26.597656 17.015625 26.160156 17.375 Z M 26.160156 17.375 "/>
</g>
</svg>
