<?xml version="1.0" encoding="UTF-8"?>
<svg xmlns="http://www.w3.org/2000/svg" xmlns:xlink="http://www.w3.org/1999/xlink" width="48" height="48" viewBox="0 0 38 38" version="1.1">
<g id="surface3632">
<path style=" stroke:none;fill-rule:nonzero;fill:rgb(0%,0%,0%);fill-opacity:1;" d="M 14.25 21.375 L 23.75 21.375 L 26.125 19 L 23.75 16.625 L 19 16.625 L 19 9.5 L 16.625 7.125 L 14.25 9.5 Z M 16.625 2.375 C 7.441406 2.375 0 9.816406 0 19 C 0 28.183594 7.441406 35.625 16.625 35.625 C 25.808594 35.625 33.25 28.183594 33.25 19 C 33.25 9.816406 25.808594 2.375 16.625 2.375 Z M 16.625 30.875 C 10.085938 30.875 4.75 25.539062 4.75 19 C 4.75 12.472656 10.101562 7.144531 16.625 7.125 C 23.148438 7.144531 28.5 12.472656 28.5 19 C 28.5 25.539062 23.164062 30.875 16.625 30.875 Z M 16.625 30.875 "/>
</g>
</svg>
